<svg width="1724" height="222" viewBox="0 0 1724 222" fill="none" xmlns="http://www.w3.org/2000/svg">
<path fill-rule="evenodd" clip-rule="evenodd" d="M-4 16.2303L32 20.5171C68 24.804 140 33.3777 212 59.099C284 84.8202 356 127.689 428 127.689C500 127.689 572 84.8202 644 50.5252C716 16.2303 788 -9.49096 860 3.36966C932 16.2303 1004 67.6727 1076 106.255C1148 144.836 1220 170.558 1292 183.418C1364 196.279 1436 196.279 1508 174.844C1580 153.41 1652 110.541 1688 89.1071L1724 67.6727V222H1688C1652 222 1580 222 1508 222C1436 222 1364 222 1292 222C1220 222 1148 222 1076 222C1004 222 932 222 860 222C788 222 716 222 644 222C572 222 500 222 428 222C356 222 284 222 212 222C140 222 68 222 32 222H-4V16.2303Z" fill="#E6DEC3"/>
</svg>
