<svg width="266" height="268" viewBox="0 0 266 268" fill="none" xmlns="http://www.w3.org/2000/svg">
<path d="M141.162 52.2734L140.11 61.9922L135.448 61.4876L137.874 39.073L142.405 39.5634L141.477 48.1331L141.674 48.1544C142.161 47.2031 142.858 46.4924 143.765 46.0222C144.673 45.5447 145.766 45.375 147.042 45.5133C148.21 45.6396 149.2 46.0052 150.013 46.6099C150.834 47.2081 151.434 48.0075 151.813 49.0082C152.2 50.0023 152.319 51.1557 152.169 52.4683L151.011 63.1721L146.348 62.6674L147.417 52.7954C147.536 51.7601 147.361 50.9254 146.891 50.2914C146.428 49.6581 145.722 49.2901 144.773 49.1874C144.139 49.1187 143.562 49.1929 143.044 49.41C142.533 49.6278 142.111 49.9807 141.778 50.4688C141.453 50.9503 141.247 51.5518 141.162 52.2734ZM161.608 67.055C159.981 66.4404 158.705 65.5819 157.78 64.4793C156.865 63.3726 156.32 62.0923 156.148 60.6385C155.978 59.1778 156.208 57.6133 156.838 55.945C157.452 54.3178 158.308 53.0091 159.403 52.0187C160.499 51.0283 161.75 50.4064 163.156 50.1528C164.569 49.9019 166.051 50.0695 167.602 50.6555C168.646 51.0497 169.554 51.5848 170.326 52.2609C171.108 52.9328 171.71 53.7288 172.131 54.6488C172.559 55.5715 172.771 56.6088 172.768 57.7607C172.767 58.9057 172.512 60.151 172.004 61.4967L171.549 62.7016L158.192 57.6567L159.219 54.9379L168.446 58.423C168.685 57.7914 168.759 57.18 168.668 56.5888C168.578 55.9976 168.341 55.4727 167.957 55.0139C167.583 54.5509 167.076 54.1988 166.438 53.9577C165.772 53.7061 165.123 53.6376 164.491 53.7521C163.869 53.8623 163.317 54.1204 162.834 54.5264C162.354 54.9255 161.992 55.4362 161.749 56.0584L160.773 58.6433C160.477 59.426 160.366 60.1567 160.439 60.8354C160.519 61.5168 160.768 62.1131 161.187 62.6243C161.606 63.1355 162.183 63.5299 162.917 63.8073C163.405 63.9914 163.877 64.0913 164.334 64.107C164.791 64.1227 165.216 64.0477 165.608 63.882C166 63.7162 166.346 63.4628 166.648 63.1217L170.604 64.9219C170.03 65.8191 169.286 66.5109 168.373 66.9975C167.469 67.4799 166.439 67.7343 165.284 67.7607C164.138 67.7829 162.913 67.5477 161.608 67.055ZM180.389 56.3792L184.405 58.8015L175.239 73.9968C174.564 75.1154 173.798 75.8876 172.942 76.3135C172.085 76.7395 171.148 76.8644 170.131 76.6883C169.121 76.516 168.047 76.0868 166.91 75.4006C166.772 75.3172 166.642 75.2345 166.52 75.1524C166.388 75.0728 166.251 74.9863 166.111 74.8928L168.004 71.7538C168.107 71.8245 168.199 71.8845 168.281 71.9338C168.353 71.9856 168.433 72.038 168.521 72.0911C169.168 72.4815 169.704 72.6162 170.128 72.4951C170.555 72.3841 170.933 72.0552 171.263 71.5085L180.389 56.3792ZM183.514 55.7183C182.923 55.362 182.533 54.857 182.345 54.2033C182.16 53.5433 182.236 52.9337 182.574 52.3744C182.907 51.8214 183.407 51.4758 184.073 51.3377C184.743 51.1933 185.374 51.2992 185.964 51.6555C186.568 52.0194 186.959 52.5295 187.137 53.1857C187.325 53.8393 187.253 54.4427 186.919 54.9957C186.582 55.555 186.078 55.9068 185.408 56.0513C184.749 56.1932 184.117 56.0822 183.514 55.7183ZM184.694 76.0142L183.865 76.905C183.203 77.6185 182.473 78.2758 181.675 78.8769C180.878 79.4883 180.126 80.0178 179.417 80.4653C178.714 80.9173 178.157 81.2682 177.745 81.5181L175.326 79.6795C175.676 79.4014 176.162 79.0104 176.785 78.5065C177.403 78.0085 178.07 77.4278 178.786 76.7646C179.503 76.1013 180.18 75.3857 180.819 74.6177L181.609 73.6694L184.694 76.0142ZM213.261 88.0133L196.221 93.5356L193.024 89.3282L202.911 74.3916L205.908 78.3361L198.4 88.4514L198.506 88.5917L210.257 84.06L213.261 88.0133ZM203.262 107.115C202.571 105.519 202.3 104.005 202.448 102.573C202.605 101.146 203.146 99.8639 204.07 98.7283C205.001 97.5897 206.284 96.6662 207.921 95.9577C209.517 95.2667 211.052 94.9701 212.526 95.0679C214 95.1657 215.317 95.6312 216.477 96.4644C217.64 97.3043 218.551 98.4854 219.21 100.007C219.654 101.031 219.901 102.056 219.953 103.081C220.015 104.11 219.861 105.096 219.494 106.039C219.129 106.988 218.532 107.862 217.702 108.661C216.879 109.457 215.808 110.141 214.488 110.713L213.306 111.224L207.634 98.1212L210.301 96.9667L214.219 106.019C214.839 105.75 215.329 105.378 215.691 104.902C216.053 104.425 216.265 103.89 216.327 103.295C216.399 102.704 216.299 102.095 216.028 101.469C215.746 100.816 215.343 100.302 214.822 99.928C214.309 99.5579 213.74 99.3407 213.112 99.2765C212.491 99.2094 211.873 99.3051 211.257 99.5637L208.721 100.661C207.954 100.994 207.351 101.422 206.915 101.947C206.481 102.479 206.226 103.073 206.151 103.729C206.075 104.386 206.193 105.074 206.505 105.795C206.712 106.273 206.969 106.682 207.276 107.021C207.582 107.36 207.932 107.613 208.324 107.779C208.715 107.945 209.139 108.018 209.594 107.997L211.054 112.091C210.01 112.303 208.996 112.25 208.011 111.933C207.035 111.62 206.136 111.057 205.313 110.246C204.5 109.438 203.816 108.395 203.262 107.115ZM230.549 116.374L208.603 121.538L207.529 116.973L229.475 111.809L230.549 116.374ZM214.244 129.199L219.861 128.886L219.9 129.567L226.619 134.605L226.929 139.979L218.026 133.204L217.962 132.094L214.244 129.199ZM209.142 125.237L231.65 123.939L231.92 128.62L209.412 129.919L209.142 125.237ZM209.75 135.787L216.816 130.396L220.304 133.326L210.067 141.272L209.75 135.787ZM207.962 149.938C208.276 148.257 208.904 146.87 209.847 145.776C210.796 144.691 211.974 143.937 213.382 143.513C214.797 143.09 216.356 143.037 218.059 143.354C219.776 143.675 221.215 144.286 222.375 145.19C223.543 146.094 224.37 147.223 224.857 148.575C225.35 149.936 225.44 151.457 225.126 153.138C224.813 154.819 224.182 156.202 223.233 157.287C222.29 158.38 221.111 159.138 219.696 159.561C218.288 159.985 216.725 160.037 215.008 159.717C213.305 159.4 211.87 158.789 210.702 157.884C209.542 156.981 208.715 155.849 208.223 154.488C207.736 153.135 207.649 151.619 207.962 149.938ZM211.53 150.625C211.387 151.39 211.484 152.069 211.822 152.662C212.166 153.256 212.693 153.754 213.402 154.155C214.11 154.563 214.947 154.857 215.914 155.037C216.881 155.218 217.768 155.245 218.575 155.119C219.381 155.001 220.052 154.727 220.588 154.296C221.123 153.866 221.462 153.269 221.605 152.504C221.749 151.732 221.65 151.042 221.308 150.433C220.965 149.831 220.439 149.327 219.732 148.918C219.022 148.517 218.184 148.227 217.218 148.046C216.251 147.866 215.365 147.835 214.559 147.954C213.751 148.079 213.079 148.361 212.542 148.798C212.011 149.244 211.674 149.853 211.53 150.625ZM205.656 160.928L220.484 169.054L218.336 172.974L215.72 171.54L215.625 171.714C216.324 172.499 216.727 173.389 216.834 174.385C216.941 175.381 216.72 176.381 216.169 177.385C215.612 178.402 214.884 179.129 213.984 179.564C213.09 180.004 212.147 180.106 211.154 179.871L211.069 180.026C211.753 180.794 212.132 181.713 212.207 182.783C212.284 183.864 212.025 184.947 211.429 186.035C210.671 187.419 209.614 188.3 208.26 188.68C206.909 189.069 205.428 188.822 203.819 187.941L193.847 182.475L196.096 178.372L205.257 183.393C206.081 183.845 206.819 183.965 207.47 183.753C208.122 183.541 208.628 183.107 208.988 182.45C209.397 181.704 209.478 180.991 209.231 180.311C208.99 179.635 208.484 179.086 207.712 178.663L198.656 173.7L200.841 169.713L210.09 174.781C210.817 175.18 211.511 175.288 212.171 175.106C212.828 174.931 213.342 174.505 213.712 173.829C213.963 173.372 214.072 172.897 214.042 172.403C214.014 171.919 213.852 171.458 213.557 171.02C213.268 170.586 212.85 170.218 212.303 169.919L203.402 165.041L205.656 160.928ZM191.608 185.134L202.426 198.129L198.992 200.989L197.083 198.696L196.931 198.823C197.294 199.81 197.343 200.786 197.077 201.752C196.812 202.718 196.239 203.567 195.359 204.299C194.468 205.041 193.524 205.45 192.527 205.526C191.534 205.607 190.619 205.356 189.781 204.774L189.646 204.887C190.001 205.852 190.017 206.846 189.694 207.87C189.37 208.903 188.732 209.817 187.778 210.61C186.566 211.62 185.26 212.053 183.861 211.909C182.461 211.776 181.174 211.004 180 209.594L172.724 200.855L176.32 197.861L183.004 205.89C183.605 206.612 184.248 206.994 184.932 207.036C185.616 207.077 186.245 206.859 186.821 206.38C187.475 205.835 187.812 205.201 187.831 204.479C187.855 203.762 187.585 203.065 187.021 202.388L180.415 194.452L183.909 191.543L190.656 199.648C191.187 200.286 191.793 200.641 192.474 200.714C193.15 200.791 193.784 200.583 194.376 200.09C194.776 199.757 195.053 199.355 195.205 198.884C195.357 198.424 195.375 197.935 195.261 197.42C195.151 196.909 194.897 196.414 194.498 195.935L188.004 188.134L191.608 185.134ZM162.433 205.167C164.048 204.521 165.569 204.292 166.996 204.48C168.419 204.678 169.685 205.254 170.794 206.21C171.906 207.172 172.793 208.481 173.456 210.137C174.101 211.752 174.355 213.294 174.216 214.765C174.077 216.235 173.575 217.539 172.709 218.675C171.837 219.815 170.631 220.692 169.091 221.308C168.055 221.722 167.024 221.941 165.998 221.964C164.967 221.997 163.986 221.816 163.054 221.422C162.115 221.031 161.258 220.41 160.483 219.558C159.71 218.713 159.056 217.623 158.522 216.287L158.044 215.091L171.301 209.789L172.38 212.487L163.222 216.15C163.473 216.777 163.831 217.278 164.297 217.653C164.763 218.028 165.293 218.255 165.885 218.334C166.474 218.422 167.085 218.34 167.719 218.086C168.38 217.822 168.905 217.434 169.293 216.923C169.678 216.422 169.911 215.858 169.992 215.233C170.077 214.614 169.999 213.993 169.757 213.37L168.731 210.805C168.421 210.028 168.009 209.414 167.497 208.963C166.977 208.515 166.391 208.243 165.737 208.149C165.082 208.055 164.391 208.154 163.662 208.446C163.178 208.639 162.762 208.884 162.415 209.182C162.067 209.479 161.805 209.821 161.628 210.208C161.45 210.595 161.366 211.016 161.374 211.471L157.241 212.816C157.058 211.767 157.139 210.754 157.484 209.778C157.825 208.812 158.412 207.929 159.246 207.129C160.076 206.339 161.139 205.685 162.433 205.167ZM137.841 228.022L137.551 224.511L147.699 223.673L147.989 227.184L137.841 228.022ZM146.019 231.412L141.345 231.798L140.047 216.087C140.012 215.655 139.918 215.324 139.767 215.094C139.616 214.871 139.419 214.721 139.177 214.645C138.928 214.57 138.646 214.546 138.332 214.572C138.112 214.59 137.894 214.626 137.678 214.681C137.462 214.743 137.297 214.79 137.181 214.821L136.159 211.404C136.387 211.312 136.709 211.2 137.126 211.07C137.541 210.933 138.052 210.828 138.657 210.756C139.78 210.619 140.78 210.688 141.657 210.961C142.526 211.236 143.225 211.715 143.753 212.401C144.281 213.086 144.586 213.982 144.67 215.087L146.019 231.412ZM133.415 211.169L132.538 228.056L127.854 227.812L128.732 210.926L133.415 211.169ZM130.072 230.11C130.768 230.146 131.353 230.408 131.828 230.896C132.294 231.391 132.511 231.964 132.477 232.616C132.443 233.261 132.169 233.802 131.654 234.238C131.131 234.681 130.522 234.885 129.825 234.848C129.129 234.812 128.548 234.547 128.081 234.052C127.607 233.565 127.386 232.998 127.42 232.353C127.454 231.701 127.732 231.153 128.255 230.71C128.77 230.274 129.375 230.074 130.072 230.11ZM116.614 231.959L120.386 209.731L125.009 210.515L121.238 232.743L116.614 231.959ZM109.988 206.584L101.759 221.355L97.8548 219.18L99.3067 216.574L99.1336 216.478C98.3436 217.172 97.4504 217.569 96.4537 217.669C95.4571 217.769 94.4586 217.54 93.4585 216.983C92.4455 216.419 91.7243 215.685 91.2948 214.782C90.8617 213.886 90.7659 212.942 91.0073 211.95L90.8534 211.865C90.0806 212.543 89.1588 212.916 88.0881 212.983C87.0074 213.053 85.9252 212.786 84.8417 212.183C83.4633 211.415 82.5892 210.352 82.2194 208.996C81.8396 207.641 82.0962 206.163 82.9891 204.56L88.5234 194.626L92.6105 196.903L87.5263 206.029C87.0691 206.85 86.9442 207.587 87.1516 208.24C87.359 208.893 87.7897 209.402 88.4436 209.766C89.1873 210.181 89.8997 210.267 90.5807 210.024C91.2582 209.788 91.8112 209.286 92.2398 208.516L97.2651 199.496L101.237 201.708L96.1045 210.921C95.7009 211.646 95.5878 212.339 95.7652 213.001C95.9362 213.659 96.3584 214.175 97.0315 214.55C97.4867 214.804 97.9613 214.917 98.4554 214.89C98.9394 214.866 99.4015 214.707 99.8417 214.415C100.278 214.129 100.648 213.713 100.952 213.168L105.892 204.301L109.988 206.584ZM85.6997 192.54L74.1743 204.913L70.7428 201.716L82.2683 189.344L85.6997 192.54ZM70.9648 204.902C71.475 205.377 71.7551 205.954 71.8051 206.632C71.8447 207.311 71.6419 207.89 71.1967 208.368C70.7565 208.84 70.1989 209.078 69.524 209.081C68.8387 209.085 68.2409 208.849 67.7308 208.374C67.2206 207.898 66.9457 207.321 66.9061 206.643C66.8561 205.964 67.0512 205.389 67.4914 204.916C67.9366 204.438 68.5019 204.197 69.1872 204.194C69.8621 204.191 70.4547 204.427 70.9648 204.902ZM69.13 188.559L77.0098 182.774L79.7852 186.554L66.1552 196.561L63.5102 192.958L65.9149 191.193L65.7977 191.033C64.7834 191.313 63.785 191.268 62.8024 190.897C61.8138 190.53 60.9482 189.841 60.2055 188.829C59.5105 187.883 59.1117 186.905 59.009 185.897C58.9062 184.889 59.096 183.908 59.5784 182.953C60.0549 182.002 60.8226 181.138 61.8815 180.36L70.56 173.989L73.3354 177.769L65.3313 183.645C64.4928 184.252 63.9985 184.943 63.8482 185.718C63.692 186.497 63.8919 187.265 64.4478 188.022C64.8213 188.531 65.2609 188.9 65.7664 189.13C66.2676 189.354 66.8086 189.421 67.3893 189.332C67.9598 189.241 68.54 188.983 69.13 188.559ZM71.9374 162.587L49.5774 168.958L48.3104 164.511L51.0419 163.733L50.9846 163.532C50.4907 163.459 49.9645 163.3 49.4062 163.054C48.8389 162.804 48.317 162.418 47.8405 161.898C47.355 161.372 46.9825 160.654 46.7231 159.744C46.3852 158.558 46.3841 157.376 46.7196 156.196C47.0481 155.019 47.748 153.954 48.8192 153C49.8835 152.048 51.3472 151.306 53.2106 150.775C55.0245 150.259 56.6396 150.115 58.0558 150.345C59.4629 150.57 60.6304 151.092 61.5583 151.911C62.4771 152.725 63.1124 153.75 63.4644 154.985C63.7137 155.86 63.7812 156.646 63.6668 157.343C63.5504 158.032 63.3287 158.633 63.0017 159.146C62.6676 159.661 62.3039 160.085 61.9105 160.419L61.9497 160.556L70.6523 158.077L71.9374 162.587ZM56.4504 162.226C57.4173 161.951 58.2226 161.576 58.8661 161.103C59.5096 160.63 59.9601 160.081 60.2176 159.459C60.4681 158.838 60.4897 158.164 60.2826 157.437C60.0734 156.703 59.6953 156.139 59.1482 155.746C58.594 155.354 57.9198 155.13 57.1254 155.074C56.322 155.013 55.4474 155.117 54.5016 155.387C53.5629 155.654 52.7743 156.02 52.1359 156.484C51.4974 156.949 51.0494 157.492 50.7919 158.115C50.5344 158.738 50.5112 159.42 50.7224 160.161C50.9315 160.895 51.3026 161.461 51.8356 161.858C52.3666 162.249 53.0267 162.477 53.816 162.542C54.6053 162.607 55.4834 162.502 56.4504 162.226ZM61.1111 137.796C61.1491 139.506 60.8187 140.992 60.12 142.256C59.4138 143.512 58.4152 144.492 57.1242 145.196C55.8258 145.901 54.3109 146.272 52.5793 146.31C50.833 146.349 49.2994 146.046 47.9784 145.4C46.65 144.754 45.6089 143.819 44.855 142.595C44.0935 141.364 43.6938 139.894 43.6559 138.184C43.6179 136.474 43.952 134.992 44.6582 133.735C45.3569 132.472 46.3554 131.488 47.6538 130.784C48.9448 130.08 50.4634 129.708 52.2097 129.67C53.9413 129.631 55.4712 129.935 56.7996 130.581C58.1206 131.227 59.1618 132.165 59.9233 133.396C60.6772 134.62 61.0731 136.087 61.1111 137.796ZM57.4787 137.855C57.4614 137.077 57.2269 136.433 56.7751 135.922C56.3159 135.411 55.6982 135.032 54.922 134.785C54.1455 134.53 53.2657 134.414 52.2825 134.436C51.2993 134.458 50.4256 134.613 49.6612 134.901C48.8966 135.183 48.2964 135.589 47.8604 136.12C47.4244 136.651 47.215 137.305 47.2323 138.083C47.2497 138.868 47.4882 139.523 47.9476 140.049C48.4069 140.567 49.0248 140.953 49.8012 141.208C50.5775 141.455 51.4572 141.567 52.4404 141.546C53.4236 141.524 54.2975 141.372 55.062 141.091C55.8264 140.802 56.4265 140.389 56.8623 139.851C57.2907 139.305 57.4961 138.64 57.4787 137.855ZM60.9366 126.523L44.3531 123.221L45.2409 118.762L48.1344 119.338L48.1688 119.166C47.1997 118.658 46.5234 117.996 46.1399 117.179C45.7491 116.36 45.6462 115.487 45.8311 114.558C45.8769 114.328 45.9408 114.083 46.0226 113.822C46.1044 113.561 46.1906 113.335 46.2811 113.144L50.3622 113.956C50.2544 114.16 50.1374 114.447 50.011 114.818C49.8847 115.19 49.79 115.534 49.7269 115.85C49.5922 116.527 49.6194 117.161 49.8084 117.752C49.9917 118.335 50.3116 118.833 50.7682 119.246C51.2263 119.651 51.7936 119.921 52.4702 120.056L61.8524 121.924L60.9366 126.523ZM51.3278 98.8964L54.6157 100.161L50.9605 109.665L47.6726 108.401L51.3278 98.8964ZM44.7213 104.789L46.4046 100.412L61.1182 106.07C61.5224 106.226 61.8612 106.285 62.1346 106.249C62.4012 106.21 62.6212 106.098 62.7946 105.913C62.9706 105.721 63.1152 105.478 63.2285 105.183C63.3075 104.978 63.3694 104.766 63.4142 104.547C63.4521 104.326 63.4819 104.157 63.5035 104.039L67.0254 104.603C67.0096 104.849 66.9698 105.187 66.9061 105.619C66.8492 106.053 66.7217 106.558 66.5236 107.135C66.159 108.205 65.6629 109.076 65.0354 109.747C64.4105 110.411 63.6746 110.832 62.8279 111.009C61.9812 111.187 61.0419 111.073 60.0102 110.669L44.7213 104.789ZM58.3337 85.9429L61.3878 87.6985L56.187 96.7463L53.1329 94.9908L58.3337 85.9429ZM68.9832 101.346L53.264 92.3107C52.2014 91.6999 51.439 90.9866 50.9769 90.1707C50.5183 89.3485 50.3226 88.4741 50.3896 87.5476C50.4566 86.6211 50.7552 85.6965 51.2855 84.7739C51.644 84.1503 52.019 83.6083 52.4107 83.1478C52.8061 82.6809 53.1151 82.3421 53.3377 82.1315L55.9749 84.6124C55.8325 84.7422 55.6714 84.9121 55.4916 85.1219C55.3154 85.3253 55.1578 85.548 55.0188 85.7897C54.675 86.3878 54.5754 86.8851 54.7201 87.2814C54.8583 87.6741 55.1756 88.0131 55.6719 88.2984L71.3148 97.29L68.9832 101.346ZM79.7405 87.1471C78.6056 88.4263 77.3525 89.2914 75.981 89.7425C74.6089 90.1833 73.2102 90.2227 71.7849 89.8608C70.3541 89.4941 68.9909 88.736 67.6953 87.5866C66.3887 86.4274 65.4708 85.1618 64.9417 83.7898C64.4071 82.4129 64.2796 81.0194 64.5592 79.6095C64.8382 78.1891 65.5451 76.8394 66.6799 75.5602C67.8147 74.2811 69.0682 73.4211 70.4403 72.9804C71.8118 72.5293 73.2129 72.4871 74.6437 72.8538C76.069 73.2157 77.4349 73.9762 78.7415 75.1354C80.0372 76.2848 80.9523 77.548 81.4869 78.9249C82.016 80.2969 82.1411 81.6931 81.8621 83.1134C81.5825 84.5234 80.8753 85.868 79.7405 87.1471ZM77.0375 84.7198C77.5538 84.1378 77.8202 83.5059 77.8366 82.8238C77.8475 82.137 77.6524 81.439 77.2513 80.73C76.8551 80.0154 76.2891 79.3318 75.5535 78.6792C74.8178 78.0265 74.0717 77.5461 73.315 77.2378C72.5632 76.924 71.847 76.8135 71.1663 76.9062C70.4856 76.9989 69.8871 77.3362 69.3708 77.9181C68.8497 78.5055 68.5788 79.1482 68.5581 79.8461C68.5424 80.5384 68.7326 81.2419 69.1288 81.9564C69.5299 82.6655 70.0983 83.3463 70.8339 83.9989C71.5696 84.6516 72.3133 85.1348 73.0651 85.4486C73.8217 85.7568 74.5429 85.8619 75.2284 85.7637C75.9134 85.6552 76.5164 85.3072 77.0375 84.7198ZM77.0536 58.0557L90.9327 75.8228L87.2371 78.7097L73.3579 60.9427L77.0536 58.0557ZM94.0074 73.6874L85.1592 59.2782L89.1555 56.8242L98.0037 71.2334L94.0074 73.6874ZM86.0261 56.188C85.432 56.5528 84.8013 56.6688 84.1341 56.5359C83.4693 56.393 82.966 56.0432 82.6242 55.4866C82.2863 54.9362 82.2058 54.3354 82.3829 53.6841C82.5624 53.0227 82.9492 52.5096 83.5433 52.1447C84.1375 51.7799 84.7669 51.669 85.4318 51.8119C86.099 51.9448 86.6016 52.2864 86.9395 52.8367C87.2813 53.3934 87.3624 54.0024 87.183 54.6638C87.0059 55.3151 86.6203 55.8231 86.0261 56.188ZM108.604 67.1549C107.008 67.7668 105.497 67.9568 104.072 67.7249C102.651 67.4834 101.392 66.8736 100.294 65.8954C99.193 64.9104 98.3328 63.6092 97.7129 61.9919C97.0879 60.3609 96.8568 58.8147 97.0198 57.3532C97.1801 55.8849 97.7094 54.5896 98.6075 53.4673C99.5099 52.3355 100.759 51.4636 102.356 50.8517C103.953 50.2397 105.462 50.0545 106.882 50.2959C108.307 50.5278 109.57 51.1364 110.671 52.1214C111.769 53.0996 112.63 54.4042 113.255 56.0352C113.875 57.6525 114.105 59.1953 113.945 60.6636C113.782 62.1251 113.249 63.4217 112.347 64.5535C111.449 65.6758 110.201 66.5429 108.604 67.1549ZM107.325 63.7548C108.051 63.4764 108.579 63.0384 108.908 62.4407C109.234 61.8362 109.383 61.1269 109.354 60.3128C109.332 59.496 109.145 58.6285 108.793 57.7102C108.441 56.7919 108 56.0216 107.471 55.3992C106.948 54.7742 106.364 54.3459 105.717 54.1143C105.07 53.8828 104.384 53.9062 103.657 54.1846C102.924 54.4656 102.387 54.911 102.047 55.5208C101.714 56.1279 101.558 56.8399 101.581 57.6566C101.61 58.4707 101.8 59.3369 102.152 60.2552C102.504 61.1735 102.941 61.9452 103.464 62.5702C103.993 63.1926 104.585 63.6182 105.238 63.8471C105.896 64.0666 106.592 64.0358 107.325 63.7548Z" fill="#1B3826"/>
</svg>
